<?xml version="1.0" encoding="UTF-8" standalone="no"?>
<svg width="128px" height="128px" viewBox="0 0 128 128" version="1.1" xmlns="http://www.w3.org/2000/svg" xmlns:xlink="http://www.w3.org/1999/xlink">
    <!-- Generator: Sketch 41.2 (35397) - http://www.bohemiancoding.com/sketch -->
    <title>icon-128</title>
    <desc>Created with Sketch.</desc>
    <defs>
        <path d="M20.0346192,11.0605434 C19.9397082,10.8931937 19.9415163,10.6860711 20.0393335,10.5204894 L26.0146984,0.348607934 C26.0944444,0.212961505 26.2292683,0.121065678 26.3821377,0.0981617083 C26.5350071,0.0752577385 26.6898468,0.123754124 26.8041267,0.230330242 L29.652141,2.86356517 C29.7955915,2.98851547 29.8613136,3.18361296 29.823646,3.37268147 C29.7859783,3.56174997 29.6508947,3.7148053 29.4711386,3.77208671 C29.2913826,3.82936813 29.0954615,3.78179143 28.9598731,3.64793302 L26.5794432,1.44423287 L20.9380672,11.0683019 C20.8442564,11.2272564 20.6759992,11.3241321 20.4947729,11.3235327 C20.3060093,11.3287552 20.1295302,11.227893 20.0346192,11.0605434 Z" id="path-1"></path>
        <mask id="mask-2" maskContentUnits="userSpaceOnUse" maskUnits="objectBoundingBox" x="-0.25" y="-0.25" width="10.3694165" height="11.731131">
            <rect x="19.7146826" y="-0.157404917" width="10.3694165" height="11.731131" fill="white"></rect>
            <use xlink:href="#path-1" fill="black"></use>
        </mask>
        <path d="M86.3266718,40.1057136 C86.0764592,37.9492695 84.8027896,36.047858 82.9085317,35.0029061 C81.2943774,34.2697219 79.4928579,34.0603166 77.7547006,34.4038343 C81.3538637,30.434984 83.5474364,26.6693902 82.2057366,24.208917 C81.4723892,22.7259422 80.080976,21.6815221 78.4574957,21.3954193 C76.3278134,21.0423949 73.8360852,22.0479796 71.8341838,23.2247277 C73.7189526,19.2986683 74.3472089,16.1856347 73.729601,13.7786501 C73.3377697,12.1885546 72.2981667,10.8374142 70.8651784,10.0558471 C69.2048905,9.0663618 67.1723602,8.93898931 65.4025433,9.71352038 C56.596307,13.2972531 49.0252864,36.4577946 47.3002438,42.0954876 C42.5936459,40.0950159 34.7244698,38.9824541 33.0100756,38.7684999 C31.5671829,37.5068622 30.6288703,35.7621872 30.3692695,33.8582511 C30.0817624,31.3014985 31.1891972,28.5093963 33.6383318,25.6852009 C38.8028114,19.6837858 40.8899001,13.5005096 39.3991225,8.70793568 C38.5472495,5.98001971 36.0661697,2.36419384 29.1447022,0.588374032 C15.1207443,-3.00605642 8.51872918,17.5549416 8.20992525,18.4321538 L7.02795157,22.1977476 L9.94561632,19.5554133 C12.0960819,17.6804403 14.5482123,16.1864339 17.1971845,15.1372592 C17.9425733,16.5386592 19.2416795,20.3470438 15.1420411,25.203804 C9.04050134,32.424758 1.91671407,54.3015743 1.2991062,59.2011253 C0.250725151,63.7530888 0.62668164,68.5876107 2.53432193,72.8941937 C5.82468108,80.7463126 13.6832087,86.1914468 24.171894,87.9351735 L24.171894,97.9268344 C21.9725629,98.2429897 19.9159269,99.2071964 18.2620257,100.697541 L19.8060453,102.173825 C19.9657715,102.002662 23.8630901,98.1300908 33.38277,100.526378 L33.9151905,98.418929 C31.4408411,97.7602404 28.8787502,97.4967081 26.3228732,97.6379962 L26.3228732,88.2454071 C31.1263276,88.8304133 35.9945226,88.5697673 40.7088771,87.475172 L40.7088771,97.9482298 C38.5100974,98.2662446 36.4539743,99.2302109 34.7990087,100.718937 L36.3430284,102.195221 C36.5027545,102.024057 40.4000731,98.1514863 49.919753,100.547773 L50.4415251,98.418929 C47.9671439,97.7604156 45.4050807,97.4968861 42.8492078,97.6379962 L42.8492078,86.9295888 C47.9389449,85.5611484 52.6441822,83.0273773 56.596307,79.5267737 C58.875067,82.425853 65.551621,90.3742513 70.4392419,90.7486712 L70.8012879,90.7486712 C71.8599828,90.7638643 72.8804395,90.3514794 73.6337653,89.6040162 C75.0886707,88.3058634 75.9506903,86.4655912 76.0190095,84.5119064 C76.0126957,83.4386851 75.7728266,82.3798357 75.3162143,81.4095706 C76.5594817,81.7033896 77.8301118,81.8647465 79.1070488,81.8909676 C79.8928763,81.9116639 80.6758861,81.7884124 81.4177541,81.5272454 C82.3126758,81.2203324 83.0262608,80.5308657 83.3664134,79.6444485 C84.4622049,76.6901415 83.6469506,73.363103 81.31127,71.2574441 C83.0919271,70.9998988 84.7998546,70.3733095 86.3266718,69.4174381 C87.7033346,68.5902625 88.5630864,67.1130385 88.6054319,65.5020763 C88.6054319,61.8434596 85.4109084,59.7360108 82.6210246,58.6020536 C86.4970464,57.3932124 89.2975786,55.6922766 89.2443366,53.2531988 C89.2497662,51.7458364 88.6050627,50.3099974 87.4767003,49.3164416 C85.9143034,48.1114621 84.0324537,47.396919 82.0673072,47.2624813 C85.0062688,45.1978234 86.8803892,42.8015364 86.3266718,40.1057136 Z M81.9927683,36.9177961 C83.2883601,37.6696247 84.141484,39.0050649 84.2821768,40.5015288 C85.2511823,45.689918 70.3327578,51.0601683 60.2274153,53.3387804 C59.627863,52.4451309 58.980926,51.5845065 58.2894044,50.7606324 C64.0923363,46.7070975 69.6106109,42.2570275 74.8050906,37.4419839 C75.7102056,37.0996572 79.4797432,35.6340709 81.9927683,36.9177961 Z M78.1167466,23.5349613 C79.1061482,23.7040902 79.9541579,24.3410514 80.3955066,25.2465948 C82.4293532,28.9693978 68.1498334,41.2931593 56.8625173,49.2094645 C55.9999959,48.3001592 55.1268262,47.4657378 54.2643049,46.7168981 C56.7240879,44.106657 64.4441862,35.6768618 69.406346,27.600091 C70.9503656,26.2093887 75.2203786,23.0214712 78.1167466,23.5349613 Z M69.8109856,11.9921325 C70.7427574,12.4834819 71.420923,13.3516595 71.6744576,14.3777218 C72.3240107,16.9237767 70.9503656,21.0958835 67.6919517,26.4233429 C62.7617372,34.5001137 54.913858,43.0261883 52.6244495,45.4438707 C51.5522277,44.600158 50.428389,43.8248351 49.2595515,43.1224677 C51.7938734,34.5536022 59.0880353,14.5702806 66.2011741,11.681899 C67.3689454,11.2466704 68.7161248,11.3305103 69.8109856,11.9921325 Z M16.7499512,26.5945063 C21.2435809,21.2456514 20.2426302,16.7847065 19.2736248,14.6130714 C20.4462283,14.4029837 21.6536422,14.5176274 22.7663037,14.9447004 L23.575583,12.9656241 C19.4759446,11.2646883 14.673511,13.5860913 11.6067685,15.6079584 C14.0559031,10.1521265 19.7741001,0.406512968 28.6442269,2.66372971 C33.436012,3.89396632 36.385622,6.14048535 37.3972211,9.34979826 C38.6750305,13.4149279 36.747668,18.8707599 32.0730154,24.3265918 C29.2085927,27.6749749 27.9414317,30.9912649 28.3034777,34.1684847 C28.5072529,35.8371018 29.1423732,37.423033 30.1456529,38.7684999 C20.934777,39.2391991 11.12759,44.2350295 5.5691192,51.3383087 C8.19927683,43.0047929 12.7780938,31.3014985 16.7499512,26.5945063 Z M4.51492646,72.0811678 C1.8148821,66.0676441 2.53013993,59.0615943 6.38904688,53.723898 C11.5535264,46.2355012 22.2232347,40.8866464 31.5618916,40.8866464 L32.4989518,40.8866464 C33.2230438,40.9829258 43.0728244,42.2666509 47.4812668,44.5345654 C49.972995,45.7861974 59.6311042,52.4187774 61.5052247,61.4797375 C62.4955269,66.250916 61.1538271,70.9579083 57.501422,75.461644 C50.9100553,83.5812057 38.0041805,87.806801 25.385813,85.9881904 C15.2059316,84.5226041 7.59231738,79.4518898 4.51492646,72.0811678 Z M73.8893272,84.5119064 C73.8267837,85.9047938 73.199624,87.2113052 72.1536361,88.1277323 C71.7463355,88.5312947 71.1770954,88.7245492 70.6096165,88.6519201 C66.9039693,88.3630819 60.7811327,81.4523615 58.1083814,78.0397921 C58.4704274,77.6546745 58.821825,77.2588593 59.1732226,76.8523463 C59.5246201,76.4458333 59.8227757,76.0286227 60.1209312,75.611412 C64.0558858,77.5645696 68.1272572,79.2271155 72.3027139,80.585847 C73.2587116,81.6763695 73.8180785,83.0605177 73.8893272,84.5119064 Z M81.3432152,78.9063066 C81.2206279,79.228343 80.9510584,79.4712821 80.6191233,79.5588668 C77.1051475,80.8853828 66.3076582,76.2318791 61.281608,73.8141968 C62.1333849,72.392813 62.802464,70.8687333 63.272861,69.2783679 C67.5714502,70.8310257 72.100703,71.6412401 76.6685626,71.6746548 L78.3936053,71.6746548 C79.3732591,72.2630289 82.8659381,74.8839677 81.3645121,78.8742134 L81.3432152,78.9063066 Z M86.4651012,65.4913786 C86.4123293,66.3913201 85.9010554,67.2002034 85.1127529,67.6309206 C81.7052612,69.9844167 72.6328147,70.4123251 63.7520395,67.1174305 C64.0545167,65.1933397 64.0184751,63.2308438 63.6455554,61.3192719 C68.6854126,61.0931956 73.7028518,60.5069051 78.6598156,59.5648475 C80.1186479,59.9071742 86.4651012,61.5011329 86.4651012,65.4913786 Z M63.1024864,59.2225208 C62.6611884,57.8637016 62.0869166,56.5521702 61.3880921,55.307159 C67.3404865,53.9382861 73.1278911,51.9260929 78.6491671,49.3057439 C80.2570773,49.1880691 84.1863411,49.3057439 86.0391647,50.9424935 C86.7254007,51.5421578 87.1147492,52.4144246 87.1040059,53.3280827 C87.1678963,56.2806506 74.8583327,58.6555421 63.1024864,59.2225208 Z" id="path-3"></path>
        <mask id="mask-4" maskContentUnits="userSpaceOnUse" maskUnits="objectBoundingBox" x="0" y="0" width="88.5194786" height="102.028175" fill="white">
            <use xlink:href="#path-3"></use>
        </mask>
        <path d="M57.9699521,67.7271999 L57.7676322,66.3258 C57.6930934,65.8551008 55.9680507,54.8471575 46.9381978,49.6159775 C28.750711,39.7847823 12.7780938,55.3606476 12.6077192,55.5104155 L12.2350248,55.8848353 L12.2989153,56.4090231 C13.0549525,62.4960199 15.4934387,66.8713832 19.4439994,69.4281358 C22.4625292,71.2210181 25.9274929,72.1116804 29.4322093,71.9955861 C33.4163329,71.9064565 37.3646387,71.2177131 41.1454619,69.9523236 C50.2285569,67.0211511 56.4898229,67.5881297 56.5537133,67.5881297 L57.9699521,67.7271999 Z M40.5597993,67.9197587 C35.7147721,69.4816243 26.7168644,71.5248869 20.5940278,67.6202229 C17.2823718,65.4806809 15.2698221,61.8220642 14.492488,56.6764659 C16.9203258,54.5369239 30.6248314,43.2187471 45.9053019,51.5308675 C52.2943487,55.232275 54.6689445,62.4639268 55.3930365,65.4378901 C50.3458458,65.474623 45.336124,66.3122386 40.5491509,67.9197587 L40.5597993,67.9197587 Z" id="path-5"></path>
        <mask id="mask-6" maskContentUnits="userSpaceOnUse" maskUnits="objectBoundingBox" x="0" y="0" width="45.7349273" height="25.6422746" fill="white">
            <use xlink:href="#path-5"></use>
        </mask>
        <ellipse id="path-7" cx="26.3654668" cy="8.622354" rx="1.63985537" ry="1.64744729"></ellipse>
        <mask id="mask-8" maskContentUnits="userSpaceOnUse" maskUnits="objectBoundingBox" x="0" y="0" width="3.27971073" height="3.29489458" fill="white">
            <use xlink:href="#path-7"></use>
        </mask>
    </defs>
    <g id="Page-1" stroke="none" stroke-width="1" fill="none" fill-rule="evenodd">
        <g id="icon-128">
            <g id="Group" transform="translate(-6.000000, 0.000000)">
                <g id="noun_1134423" transform="translate(112.310983, 60.931850) scale(-1, 1) translate(-112.310983, -60.931850) translate(96.912487, 34.465684)">
                    <path d="M23.4763828,52.1978129 L12.7948108,52.1978129 C9.99915953,52.1943827 7.73367079,49.8719571 7.7303247,47.0060448 L7.7303247,9.87929983 C7.7303247,9.58706551 7.96141949,9.35016279 8.24648935,9.35016279 L8.24648935,9.35016279 C8.53155922,9.35016279 8.762654,9.58706551 8.762654,9.87929983 L8.762654,47.0060448 C8.76599813,49.287489 10.5692987,51.1361107 12.7948108,51.1395388 L23.4824553,51.1395388 C25.7079674,51.1361107 27.511268,49.287489 27.5146121,47.0060448 L27.5146121,9.87929983 C27.5146121,9.58706551 27.7457069,9.35016279 28.0307768,9.35016279 L28.0307768,9.35016279 C28.3158466,9.35016279 28.5469414,9.58706551 28.5469414,9.87929983 L28.5469414,47.0060448 C28.5435905,49.8743858 26.2744052,52.197815 23.4763828,52.1978129 L23.4763828,52.1978129 Z" id="Shape" fill="#231F20"></path>
                    <path d="M8.2586344,17.7727795 C3.99600148,17.7727795 0.540454751,14.230387 0.540454751,9.86062441 C0.540454751,5.49086183 3.99600148,1.94846934 8.2586344,1.94846934 C12.5212673,1.94846934 15.9768141,5.49086183 15.9768141,9.86062441 C15.9768141,10.1528587 15.7457193,10.3897614 15.4606494,10.3897614 C15.1755795,10.3897614 14.9444848,10.1528587 14.9444848,9.86062441 C14.9444848,6.07876852 11.9538464,3.01296857 8.26470693,3.01296857 C4.5755675,3.01296857 1.5849291,6.07876852 1.5849291,9.86062441 C1.5849291,13.6424803 4.5755675,16.7082802 8.26470693,16.7082802 C8.54977679,16.7082802 8.78087158,16.945183 8.78087158,17.2374173 C8.78087158,17.5296516 8.54977679,17.7665543 8.26470693,17.7665543 L8.2586344,17.7727795 Z" id="Shape" fill="#231F20"></path>
                    <path d="M8.2586344,15.3698748 C5.29055405,15.3698748 2.88444952,12.9032994 2.88444952,9.86062441 C2.88444952,6.81794944 5.29055405,4.35137403 8.2586344,4.35137403 C11.2267148,4.35137403 13.6328193,6.81794944 13.6328193,9.86062441 C13.6328193,10.1528587 13.4017245,10.3897614 13.1166546,10.3897614 C12.8315848,10.3897614 12.60049,10.1528587 12.60049,9.86062441 C12.5971373,7.40323137 10.6517403,5.41358471 8.25459171,5.41587519 C5.85744313,5.41816566 3.91566754,7.41152652 3.91678353,9.8689217 C3.91789952,12.3263169 5.86148478,14.3178234 8.2586344,14.3178258 C8.54370427,14.3178258 8.77479905,14.5547286 8.77479905,14.8469629 C8.77479905,15.1391972 8.54370427,15.3760999 8.2586344,15.3760999 L8.2586344,15.3698748 Z" id="Shape" fill="#231F20"></path>
                    <g id="Shape">
                        <use fill="#231F20" fill-rule="evenodd" xlink:href="#path-1"></use>
                        <use stroke="#FFFFFF" mask="url(#mask-2)" stroke-width="0.5" xlink:href="#path-1"></use>
                    </g>
                    <path d="M18.1325605,14.9901411 C7.72425218,14.9901411 7.72425218,13.7824637 7.72425218,13.3280283 C7.72425218,13.0800225 7.89228028,12.8652916 8.12844499,12.8114916 C8.3646097,12.7576916 8.60553863,12.8792591 8.70800127,13.1039232 C9.3152538,13.4587563 12.8251734,13.9256419 18.1325605,13.9256419 C23.4399476,13.9256419 26.9316497,13.4587563 27.5571198,13.1039232 C27.6595824,12.8792591 27.9005114,12.7576916 28.1366761,12.8114916 C28.3728408,12.8652916 28.5408689,13.0800225 28.5408689,13.3280283 C28.5408689,13.7824637 28.5408689,14.9901411 18.1325605,14.9901411 Z" id="Shape" fill="#231F20"></path>
                    <path d="M18.1325605,17.928408 C7.72425218,17.928408 7.72425218,16.7207305 7.72425218,16.2662952 C7.72425218,16.0182894 7.89228028,15.8035585 8.12844499,15.7497585 C8.3646097,15.6959584 8.60553863,15.817526 8.70800127,16.0421901 C9.3152538,16.3970232 12.8251734,16.8639088 18.1325605,16.8639088 C23.4399476,16.8639088 26.9316497,16.3970232 27.5571198,16.0421901 C27.6595824,15.817526 27.9005114,15.6959584 28.1366761,15.7497585 C28.3728408,15.8035585 28.5408689,16.0182894 28.5408689,16.2662952 C28.5408689,16.7269557 28.5408689,17.928408 18.1325605,17.928408 Z" id="Shape" fill="#231F20"></path>
                    <path d="M18.1325605,11.3235327 C10.7058621,11.3235327 8.57440572,10.7010185 7.96715319,10.1905569 L3.40061417,10.1905569 C3.1155443,10.1905569 2.88444952,9.95365419 2.88444952,9.66141987 C2.88444952,9.36918556 3.1155443,9.13228283 3.40061417,9.13228283 L8.2586344,9.13228283 C8.4590444,9.13228283 8.64133932,9.25120418 8.72621885,9.43731477 C9.33347138,9.79214785 12.843391,10.2590335 18.1507781,10.2590335 C23.4581652,10.2590335 26.9498673,9.79214785 27.5753374,9.43731477 C27.6778,9.21265068 27.9187289,9.09108313 28.1548936,9.14488314 C28.3910584,9.19868316 28.5590865,9.41341406 28.5590865,9.66141987 C28.5408689,10.1158552 28.5408689,11.3235327 18.1325605,11.3235327 Z" id="Shape" fill="#231F20"></path>
                    <path d="M28.0307768,9.96022667 C27.8289598,9.95910646 27.6462917,9.8375097 27.5631923,9.64896959 C26.9559398,9.28791137 23.4520927,8.82102575 18.1386331,8.82102575 L15.8432185,8.82102575 C15.704437,8.83164737 15.5677616,8.78150487 15.4670676,8.68302615 C15.3663736,8.58454743 15.3110863,8.44695048 15.3149088,8.30433899 C15.3116496,8.16399213 15.3629292,8.02807005 15.4574592,7.9264941 C15.5519893,7.82491815 15.6820205,7.76601511 15.8189284,7.76275166 C16.565849,7.76275166 17.3431322,7.73162596 18.1447056,7.73162596 C28.5408689,7.73162596 28.5408689,8.94552858 28.5408689,9.39996392 C28.5491861,9.54453514 28.4993369,9.68628292 28.4029444,9.79215611 C28.306552,9.8980293 28.1720416,9.95877409 28.0307768,9.96022667 Z" id="Shape" fill="#231F20"></path>
                    <path d="M8.24041683,9.96022667 C8.08844213,9.96057934 7.94403911,9.89225678 7.84570268,9.77347242 L5.27095196,6.66090159 C5.07307995,6.43399023 5.09211129,6.08560389 5.31345965,5.8827589 C5.53480801,5.67991391 5.87465327,5.69942353 6.0725253,5.92633487 L8.64727602,9.03890571 C8.77754989,9.19626638 8.80668149,9.41691654 8.7218985,9.60411545 C8.6371155,9.79131436 8.45389291,9.91089363 8.25256188,9.91042554 L8.24041683,9.96022667 Z" id="Shape" fill="#231F20"></path>
                    <path d="M18.1325605,48.8922627 C12.3940241,48.8922627 7.72425218,45.9664461 7.72425218,42.3683142 C7.72425218,42.0760799 7.95534696,41.8391772 8.24041683,41.8391772 C8.52548669,41.8391772 8.75658148,42.0760799 8.75658148,42.3683142 C8.75658148,45.3812828 12.9648415,47.8339886 18.1325605,47.8339886 C23.3002796,47.8339886 27.5085396,45.3812828 27.5085396,42.3683142 C27.5085396,42.0760799 27.7396344,41.8391772 28.0247042,41.8391772 C28.3097741,41.8391772 28.5408689,42.0760799 28.5408689,42.3683142 C28.5408689,45.960221 23.8771695,48.8922627 18.1325605,48.8922627 Z" id="Shape" fill="#231F20"></path>
                    <path d="M25.4378085,43.4701643 C24.400011,43.4349962 23.3655206,43.3310266 22.3408206,43.1589072 C20.8178708,42.9090213 19.2798651,42.7675796 17.7378464,42.7355976 C16.2190695,42.7650617 14.7046736,42.9128156 13.2077425,43.1775826 C11.1370114,43.4950649 9.49742956,43.7440705 8.52582551,42.8912261 C7.93496243,42.2805812 7.64100344,41.431331 7.72425218,40.5754734 C7.72425218,40.2832391 7.95534696,40.0463364 8.24041683,40.0463364 C8.52548669,40.0463364 8.75658148,40.2832391 8.75658148,40.5754734 C8.68864027,41.1213177 8.84974848,41.6710876 9.19987582,42.0881828 C9.80712835,42.6297702 11.2463168,42.4118902 13.0559294,42.1317588 C14.6031529,41.8603161 16.1683486,41.7104765 17.7378464,41.6835486 C19.3287037,41.7155439 20.9154523,41.8611499 22.4865612,42.1193086 C24.5451472,42.4118902 26.3243972,42.667121 27.0591727,42.0134811 C27.4057724,41.6261662 27.571865,41.1040143 27.5146121,40.5816986 C27.5146121,40.2894642 27.7457069,40.0525615 28.0307768,40.0525615 C28.3158466,40.0525615 28.5469414,40.2894642 28.5469414,40.5816986 C28.6182886,41.4131095 28.3218264,42.2334462 27.7392955,42.8165244 C27.0754287,43.3145543 26.2570305,43.5469856 25.4378085,43.4701643 Z" id="Shape" fill="#231F20"></path>
                    <path d="M15.6792603,28.0691638 C14.5092857,28.0171888 13.3771647,27.6288928 12.4122417,26.9486383 C10.79695,25.8716888 9.77676573,24.3527542 9.80712835,23.070375 C9.81063497,22.8708525 9.9233418,22.6903221 10.0986096,22.6034894 C11.2280993,22.0494518 13.0012767,22.3856095 14.6165684,23.462559 C16.2318601,24.5395085 17.2520444,26.058443 17.2216817,27.3408222 C17.2181751,27.5403448 17.1054683,27.7208751 16.9302005,27.8077078 C16.5373784,27.9891491 16.1100193,28.0784704 15.6792603,28.0691638 L15.6792603,28.0691638 Z M10.8758928,23.4501087 C11.2367112,24.5564509 11.9854854,25.4859922 12.9769866,26.058443 C13.8915031,26.7539725 15.0257796,27.0757351 16.1589898,26.9610886 C15.7981714,25.8547464 15.0493972,24.925205 14.0578961,24.3527542 C13.1433795,23.6572247 12.009103,23.3354621 10.8758928,23.4501087 L10.8758928,23.4501087 Z" id="Shape" fill="#231F20"></path>
                    <path d="M12.9952041,36.1058217 C12.9409089,36.1148848 12.8855411,36.1148848 12.8312459,36.1058217 L11.1916641,35.5517841 C10.8023926,35.4221685 10.4861484,35.1274484 10.323293,34.7425157 C9.61888007,33.2422565 10.7180071,30.0923348 10.8455302,29.7624023 C10.9444662,29.4873583 11.2421706,29.3466102 11.5104717,29.4480327 C11.7787727,29.5494552 11.9160702,29.8546416 11.8171342,30.1296857 C11.3920575,31.3062375 10.8698203,33.4850371 11.2584619,34.3129809 C11.2991148,34.424044 11.3859309,34.51076 11.4952904,34.5495363 L13.1348722,35.1035739 C13.3406725,35.2022104 13.4593666,35.42719 13.4272382,35.6577411 C13.3951098,35.8882921 13.2197135,36.070203 12.9952041,36.1058217 Z" id="Shape" fill="#231F20"></path>
                    <path d="M11.3616948,38.5585275 C11.1562443,38.5587659 10.970218,38.4340764 10.8880379,38.2410453 C9.91036128,35.9626434 10.924473,34.7238402 10.9730532,34.6740391 C11.1631506,34.4771704 11.4691875,34.46392 11.6748009,34.6436557 C11.8804144,34.8233915 11.9160042,35.1352727 11.756409,35.3588047 C11.7199738,35.4023807 11.1491564,36.1991988 11.8353518,37.8115105 C11.8905513,37.944917 11.8899637,38.0956935 11.8337261,38.2286436 C11.7774886,38.3615937 11.6705227,38.4650823 11.5377981,38.5149515 C11.4821035,38.540132 11.422462,38.55489 11.3616948,38.5585275 L11.3616948,38.5585275 Z" id="Shape" fill="#231F20"></path>
                    <path d="M20.3915399,28.0691638 C19.9607809,28.0784704 19.5334219,27.9891491 19.1405997,27.8077078 C18.965332,27.7208751 18.8526251,27.5403448 18.8491185,27.3408222 C18.8187559,26.058443 19.8389401,24.5395085 21.4542319,23.462559 C23.0695236,22.3856095 24.842701,22.0494518 25.9721907,22.6034894 C26.1474585,22.6903221 26.2601653,22.8708525 26.2636719,23.070375 C26.2940345,24.3527542 25.2738503,25.8716888 23.6585585,26.9486383 C22.6936355,27.6288928 21.5615146,28.0171888 20.3915399,28.0691638 L20.3915399,28.0691638 Z M19.917883,26.9610886 C21.0422323,27.0712143 22.1666688,26.7520061 23.0755961,26.0646682 C24.0670972,25.4922174 24.8158715,24.562676 25.1766899,23.4563338 C24.0434797,23.3416873 22.9092031,23.6634499 21.9946866,24.3589794 C21.0100526,24.9349639 20.2681305,25.8640547 19.9118104,26.9673137 L19.917883,26.9610886 Z" id="Shape" fill="#231F20"></path>
                    <path d="M23.3488598,39.3055445 C22.2291314,39.27493 21.1382116,38.9351276 20.1911466,38.3219721 C19.5343184,37.9011178 18.8008825,37.6215497 18.0354001,37.5002534 C17.2720208,37.6223631 16.5407257,37.9019027 15.8857262,38.3219721 C14.6298213,39.1595644 13.1099752,39.4756246 11.6349585,39.2059422 C10.7302392,39.0327613 9.9411288,38.4708068 9.46706694,37.6621071 C7.95500814,35.3152287 8.05824107,31.1257084 8.44688269,29.395119 C8.64727602,28.5111489 9.09664289,28.2434678 9.43670431,28.1500906 C10.4811787,27.9384358 11.6713936,29.2768413 13.1348722,31.3622637 C14.2322416,32.6869211 15.8304241,33.4664396 17.525308,33.5037125 L18.5394197,33.5037125 C20.2343036,33.4664396 21.8324862,32.6869211 22.9298555,31.3622637 C24.1990133,29.5569727 25.5410414,27.9259855 26.6280234,28.1500906 C26.9680848,28.2185672 27.4113792,28.4862483 27.617845,29.395119 C28.0125592,31.1194832 28.1097196,35.3152287 26.5855157,37.6683323 C26.1140761,38.4779526 25.3272592,39.0421135 24.4236967,39.2183925 C24.0684466,39.2783821 23.7088922,39.3075362 23.3488598,39.3055445 Z M18.369389,36.4793302 C19.1749865,36.6415893 19.9460419,36.9493315 20.646586,37.3882009 C21.6957287,38.1065333 22.9744717,38.3829775 24.2172309,38.1601184 C24.8405747,38.0354309 25.3808521,37.6404681 25.698927,37.0769438 C26.9680848,35.1160242 26.9498673,31.2502112 26.5855157,29.6067738 C26.5126454,29.2768413 26.415485,29.1834642 26.40334,29.1834642 C26.2697444,29.1461133 25.6564194,29.264391 23.7435739,31.9785528 C22.4492956,33.5762057 20.5406181,34.5170325 18.5151296,34.5557614 L17.525308,34.5557614 C15.4998195,34.5170325 13.591142,33.5762057 12.2968637,31.9785528 C10.3840183,29.2706161 9.78283825,29.1523384 9.63709764,29.1834642 C9.63709764,29.1834642 9.52779219,29.2768413 9.45492188,29.6067738 C9.08449784,31.2190855 9.06628027,35.0911236 10.3415106,37.0769438 C10.6595855,37.6404681 11.1998629,38.0354309 11.8232067,38.1601184 C13.065966,38.3829775 14.344709,38.1065333 15.3938516,37.3882009 C16.1036742,36.9458937 16.8852981,36.6380381 17.7014112,36.4793302 C17.7807255,36.4401826 17.8686583,36.4230125 17.9564573,36.4295291 L18.114343,36.4295291 C18.2020923,36.4238554 18.2898186,36.4409852 18.369389,36.4793302 Z" id="Shape" fill="#231F20"></path>
                    <path d="M18.0354001,24.2780525 C17.6652461,24.2721238 17.3228702,24.0755747 17.1245213,23.7551406 C14.3190146,19.3975414 8.44688269,21.0845548 8.38615743,21.1032303 C8.12041202,21.1629237 7.85509128,21.0009269 7.77971812,20.7329568 C7.70434496,20.4649866 7.84479773,20.1830471 8.10074874,20.0885322 C9.30376156,19.7733767 10.5475565,19.6536434 11.7867716,19.7336991 C14.2754666,19.7836562 16.5862768,21.0667062 17.9868199,23.1762024 C18.0232551,23.2322287 18.0171826,23.2820299 18.0839803,23.1762024 C19.4803491,21.05547 21.7947459,19.7624 24.2901012,19.7087985 C25.5293147,19.6288459 26.773094,19.7485777 27.976124,20.0636316 C28.232075,20.1581466 28.3725278,20.4400861 28.2971547,20.7080562 C28.2217815,20.9760263 27.9564608,21.1380232 27.6907153,21.0783297 C27.6299901,21.0783297 21.7578581,19.3975414 18.9523514,23.7302401 C18.7586462,24.0620434 18.4124976,24.2688423 18.0354001,24.2780525 Z" id="Shape" fill="#231F20"></path>
                    <path d="M23.0755961,36.1058217 C22.8196371,36.1097155 22.5995641,35.920708 22.5584677,35.661691 C22.5173712,35.4026741 22.667669,35.1519115 22.9116379,35.0724482 L24.5512198,34.5184106 C24.6601291,34.4788892 24.7466804,34.3924376 24.7880483,34.2818552 C25.1766899,33.4539113 24.6483802,31.2751118 24.2293759,30.09856 C24.1304399,29.8235159 24.2677374,29.5183295 24.5360385,29.416907 C24.8043395,29.3154845 25.1020439,29.4562326 25.20098,29.7312766 C25.328503,30.0861097 26.415485,33.2422565 25.7232172,34.71139 C25.570632,35.0891964 25.2713522,35.3847184 24.8973537,35.5268835 L23.2577719,36.0809211 C23.1989887,36.1003265 23.1372855,36.1087603 23.0755961,36.1058217 L23.0755961,36.1058217 Z" id="Shape" fill="#231F20"></path>
                    <path d="M24.7091054,38.5585275 C24.6380745,38.5588974 24.5677512,38.5440552 24.5026396,38.5149515 C24.3769211,38.458933 24.2781031,38.3539497 24.2279791,38.2231547 C24.1778551,38.0923597 24.1805424,37.9464971 24.2354485,37.8177357 C24.9337889,36.1929737 24.3386814,35.3961555 24.3143913,35.3650298 C24.1383202,35.1399821 24.1678598,34.812386 24.3811891,34.624238 C24.5945101,34.4379851 24.9144482,34.4630005 25.097747,34.6802643 C25.1402547,34.7300654 26.160439,35.9688686 25.1827624,38.2472704 C25.098758,38.4378671 24.913122,38.5598551 24.7091054,38.5585275 Z" id="Shape" fill="#231F20"></path>
                    <path d="M16.7055171,33.2796074 C16.5321702,33.2799757 16.3702183,33.1911187 16.2743678,33.043052 C16.013101,32.6168265 15.6094691,32.3026222 15.1388056,32.1590819 C14.8719634,32.1397664 14.6108794,32.2449946 14.4283201,32.4454384 C14.2852835,32.5802956 14.0804823,32.6213665 13.8984179,32.551705 C13.7163534,32.4820436 13.587886,32.3134576 13.5660215,32.1155059 C13.498452,31.3947351 13.7349401,30.6787688 14.2157817,30.1483611 C14.9265088,29.5334832 15.8803859,29.3023129 16.7844599,29.5258469 C16.9754625,29.5421438 17.1419301,29.6655926 17.2168003,29.8464614 C17.2916705,30.0273302 17.2626144,30.235835 17.1413373,30.3879785 C17.0200602,30.5401221 16.8265331,30.6108506 16.6387193,30.5716707 C16.0543507,30.4067827 15.4285396,30.5236345 14.9384122,30.889153 C14.8769903,30.9523311 14.8239098,31.0234886 14.7805266,31.1008078 C14.9456095,31.0757574 15.1133907,31.0757574 15.2784736,31.1008078 C16.0476558,31.2853339 16.7164008,31.7699098 17.1427389,32.4516635 C17.2211921,32.5685219 17.2505873,32.7127799 17.2243273,32.8520615 C17.1980673,32.9913431 17.1183516,33.1139825 17.0030708,33.1924554 C16.9150828,33.2523919 16.8111122,33.2828443 16.7055171,33.2796074 Z" id="Shape" fill="#231F20"></path>
                    <path d="M19.4320809,33.2796074 C19.2437378,33.2785252 19.0709218,33.1723629 18.981175,33.0026121 C18.8914282,32.8328613 18.8990002,32.6264743 19.0009316,32.4641138 C19.4367327,31.7804472 20.1171896,31.299758 20.8955595,31.1257084 C21.060649,31.1007481 21.2284172,31.1007481 21.3935066,31.1257084 C21.3481866,31.0480614 21.2930567,30.9768939 21.2295484,30.9140535 C20.7399409,30.5525969 20.1168964,30.438134 19.5353139,30.6027965 C19.3475001,30.6419763 19.153973,30.5712478 19.0326959,30.4191042 C18.9114188,30.2669607 18.8823627,30.058456 18.9572329,29.8775871 C19.0321031,29.6967183 19.1985707,29.5732695 19.3895733,29.5569727 C20.2936473,29.3334386 21.2475243,29.5646089 21.9582515,30.1794868 C22.439093,30.7098945 22.6755812,31.4258608 22.6080117,32.1466316 C22.5861471,32.3445833 22.4576797,32.5131693 22.2756153,32.5828307 C22.0935509,32.6524922 21.8887497,32.6114213 21.7457131,32.4765641 C21.5631538,32.2761203 21.3020698,32.1708921 21.0352276,32.1902076 C20.5645641,32.3337479 20.1609322,32.6479522 19.8996654,33.0741777 C19.7898282,33.2221032 19.6123231,33.3000887 19.4320809,33.2796074 Z" id="Shape" fill="#231F20"></path>
                    <path d="M19.2559777,30.5965713 C18.9709078,30.5965713 18.7398131,30.3596686 18.7398131,30.0674343 L18.7398131,22.8773956 C18.7398131,22.5851613 18.9709078,22.3482586 19.2559777,22.3482586 C19.5410476,22.3482586 19.7721424,22.5851613 19.7721424,22.8773956 L19.7721424,30.0674343 C19.7721424,30.3596686 19.5410476,30.5965713 19.2559777,30.5965713 Z" id="Shape" fill="#231F20"></path>
                    <path d="M16.9119829,30.5965713 C16.6269131,30.5965713 16.3958183,30.3596686 16.3958183,30.0674343 L16.3958183,22.8773956 C16.3958183,22.5851613 16.6269131,22.3482586 16.9119829,22.3482586 C17.1970528,22.3482586 17.4281476,22.5851613 17.4281476,22.8773956 L17.4281476,30.0674343 C17.4281476,30.2077701 17.3737661,30.3423582 17.2769665,30.4415907 C17.1801668,30.5408231 17.0488783,30.5965713 16.9119829,30.5965713 Z" id="Shape" fill="#231F20"></path>
                    <path d="M18.1325605,52.1978129 C17.994616,52.1994767 17.8617621,52.1444638 17.7636451,52.0450505 C17.6655281,51.9456372 17.6103138,51.810097 17.6103234,51.6686759 L17.6103234,48.3631256 C17.6103234,48.0708913 17.8414181,47.8339886 18.126488,47.8339886 C18.4115579,47.8339886 18.6426527,48.0708913 18.6426527,48.3631256 L18.6426527,51.6686759 C18.6426722,51.9584963 18.4152561,52.1944033 18.1325605,52.1978129 Z" id="Shape" fill="#231F20"></path>
                    <path d="M8.24041683,9.96022667 C7.95534696,9.96022667 7.72425218,9.72332395 7.72425218,9.43108963 L7.72425218,5.29137042 C7.72425218,4.9991361 7.95534696,4.76223338 8.24041683,4.76223338 C8.52548669,4.76223338 8.75658148,4.9991361 8.75658148,5.29137042 L8.75658148,9.39996392 C8.76495359,9.54561051 8.71429103,9.6883377 8.61656915,9.79440837 C8.51884727,9.90047904 8.38273897,9.96047933 8.24041683,9.96022667 Z" id="Shape" fill="#231F20"></path>
                    <path d="M5.33167721,13.8571654 C5.12482484,13.8566963 4.93822391,13.7296784 4.85753946,13.5344233 C4.77685502,13.3391682 4.81767243,13.1133922 4.96125317,12.960745 L7.85177521,9.84817412 C7.9768446,9.69969451 8.17178263,9.63433465 8.35826837,9.6783544 C8.54475412,9.72237415 8.6921781,9.86854818 8.74130927,10.0581476 C8.79044044,10.2477471 8.7332145,10.4496514 8.59262329,10.5827408 L5.70210125,13.6953117 C5.60509317,13.7984468 5.47143477,13.8568477 5.33167721,13.8571654 L5.33167721,13.8571654 Z" id="Shape" fill="#231F20"></path>
                    <path d="M8.7140738,9.96022667 C8.50611685,9.96227217 8.31727459,9.83618017 8.23503249,9.64036565 C8.15279039,9.44455113 8.19321442,9.2172664 8.33757723,9.06380627 L10.9791257,6.20646625 C11.1785577,6.01327712 11.4905758,6.01380531 11.6893842,6.20766858 C11.8881927,6.40153184 11.9042984,6.72096568 11.7260463,6.93480782 L9.10878794,9.76724728 C9.01161125,9.88835435 8.86703963,9.95903675 8.7140738,9.96022667 Z" id="Shape" fill="#231F20"></path>
                </g>
                <g id="noun_1042947" transform="translate(56.826967, 61.323910) scale(-1, 1) rotate(-15.000000) translate(-56.826967, -61.323910) translate(12.075087, 9.835188)" stroke="#FFFFFF" stroke-width="0.7" fill="#000000">
                    <g id="icons_animals_2" transform="translate(0.000000, 0.000000)">
                        <use id="Shape" mask="url(#mask-4)" xlink:href="#path-3"></use>
                        <use id="Shape" mask="url(#mask-6)" xlink:href="#path-5"></use>
                        <use id="Oval" mask="url(#mask-8)" xlink:href="#path-7"></use>
                    </g>
                </g>
            </g>
        </g>
    </g>
</svg>