<?xml version="1.0" encoding="UTF-8" standalone="no"?>
<svg width="71px" height="62px" viewBox="0 0 71 62" version="1.1" xmlns="http://www.w3.org/2000/svg" xmlns:xlink="http://www.w3.org/1999/xlink">
    <!-- Generator: Sketch 41.2 (35397) - http://www.bohemiancoding.com/sketch -->
    <title>icon</title>
    <desc>Created with Sketch.</desc>
    <defs>
        <path d="M12.2071276,6.7392079 C12.1492982,6.63724148 12.1503998,6.51104129 12.21,6.41015212 L15.8508,0.212407407 C15.8993894,0.129757808 15.9815378,0.0737655238 16.0746814,0.059810096 C16.167825,0.0458546682 16.2621691,0.0754035984 16.3318,0.140340608 L18.0671,1.74477513 C18.1545046,1.82090757 18.1945492,1.9397808 18.1715982,2.05498056 C18.1486473,2.17018032 18.0663406,2.26343719 17.9568149,2.29833885 C17.8472893,2.33324052 17.7279142,2.30425195 17.6453,2.2226918 L16.1949,0.879973545 L12.7576,6.74393519 C12.7004409,6.84078644 12.5979215,6.89981294 12.4875,6.89944775 C12.372486,6.90262986 12.264957,6.84117432 12.2071276,6.7392079 Z" id="path-1"></path>
        <mask id="mask-2" maskContentUnits="userSpaceOnUse" maskUnits="objectBoundingBox" x="-0.25" y="-0.25" width="6.51345227" height="7.34314726">
            <rect x="11.9145151" y="-0.193581658" width="6.51345227" height="7.34314726" fill="white"></rect>
            <use xlink:href="#path-1" fill="black"></use>
        </mask>
        <path d="M52.5989881,24.4364796 C52.4465331,23.1225545 51.6704841,21.9640212 50.5163095,21.3273302 C49.5328025,20.8805999 48.4351337,20.7530089 47.3760714,20.9623148 C49.5690476,18.5440876 50.9055952,16.2497049 50.0880952,14.7505343 C49.6412654,13.8469553 48.793475,13.2105883 47.8042857,13.0362654 C46.5066667,12.8211671 44.9884524,13.4338715 43.7686905,14.1508661 C44.9170833,11.7587114 45.299881,9.8619348 44.9235714,8.39535494 C44.684828,7.42650707 44.051396,6.60325491 43.1782738,6.12704475 C42.1666576,5.52414968 40.9282334,5.44654141 39.849881,5.91846451 C34.4842262,8.10203897 29.8711905,22.2137963 28.820119,25.6488522 C25.952381,24.4299614 21.1576786,23.7520756 20.1130952,23.621713 C19.2339383,22.852995 18.6622228,21.7899616 18.5040476,20.62989 C18.328869,19.0720563 19.003631,17.3708237 20.4958929,15.6500367 C23.642619,11.9933642 24.9142857,8.22588349 24.0059524,5.30576003 C23.4869048,3.64363619 21.9751786,1.44050733 17.7579167,0.358497299 C9.21309524,-1.83159529 5.19047619,10.6962558 5.00232143,11.2307427 L4.28214286,13.5251254 L6.05988095,11.9151466 C7.3701633,10.7727224 8.86425053,9.8624217 10.4782738,9.22315779 C10.9324405,10.0770332 11.7239881,12.3974884 9.22607143,15.3567207 C5.50839286,19.7564603 1.16785714,33.0860417 0.791547619,36.0713465 C0.152767262,38.8448655 0.38183819,41.790548 1.54416667,44.4145563 C3.5489881,49.1988657 8.33720238,52.5165953 14.7279762,53.5790509 L14.7279762,59.6669869 C13.38792,59.8596208 12.1348082,60.4471137 11.1270833,61.3551833 L12.0678571,62.2546856 C12.1651786,62.1503954 14.5398214,59.7908314 20.3401786,61.2508931 L20.6645833,59.966821 C19.156958,59.5654809 17.5958717,59.4049102 16.0385714,59.4909973 L16.0385714,53.7680768 C18.9653244,54.124522 21.9315239,53.96571 24.8039881,53.2987712 L24.8039881,59.6800231 C23.4642679,59.8737901 22.2114686,60.4611364 21.2030952,61.3682195 L22.143869,62.2677218 C22.2411905,62.1634317 24.6158333,59.8038677 30.4161905,61.2639294 L30.7341071,59.966821 C29.2264624,59.5655876 27.6653929,59.4050187 26.1080952,59.4909973 L26.1080952,52.9663465 C29.2092807,52.1325534 32.0761899,50.5887224 34.4842262,48.4557986 C35.8726786,50.2222126 39.9407143,55.0651852 42.91875,55.2933198 L43.1393452,55.2933198 C43.7844098,55.302577 44.4061758,55.0513102 44.8651786,54.5958796 C45.7516549,53.8049129 46.2768849,52.6836319 46.3185119,51.4932485 C46.3146649,50.8393329 46.1685123,50.1941742 45.8902976,49.60299 C46.6478225,49.7820143 47.4220196,49.8803294 48.2000595,49.8963059 C48.6788655,49.9089163 49.1559547,49.8338189 49.6079762,49.6746894 C50.1532535,49.4876868 50.588042,49.0675936 50.7952976,48.5274981 C51.4629652,46.7274337 50.9662294,44.7002635 49.5430952,43.417282 C50.6280526,43.2603592 51.6686957,42.8785773 52.5989881,42.2961632 C53.4377911,41.7921637 53.9616393,40.8920886 53.9874405,39.9105266 C53.9874405,37.6813252 52.0410119,36.3972531 50.341131,35.706331 C52.7027976,34.969782 54.4091667,33.9333989 54.3767262,32.4472647 C54.3800345,31.5288262 53.9872155,30.6539671 53.2997024,30.0485918 C52.3477313,29.3143958 51.2011171,28.8790234 50.00375,28.7971103 C51.7944643,27.5391107 52.936369,26.079049 52.5989881,24.4364796 Z M49.9583333,22.494076 C50.7477396,22.9521665 51.2675494,23.7658524 51.3532738,24.6776505 C51.9436905,27.8389448 42.853869,31.1110475 36.6966667,32.4994097 C36.3313584,31.9549075 35.9371786,31.4305276 35.5158333,30.9285397 C39.0515696,28.458714 42.4138637,25.7472788 45.578869,22.8134645 C46.1303571,22.6048843 48.4271429,21.7119001 49.9583333,22.494076 Z M47.5966667,14.339892 C48.1995108,14.4429425 48.7162045,14.8310441 48.985119,15.3827932 C50.2243452,17.6511034 41.5238095,25.1599923 34.6464286,29.9834105 C34.1208929,29.4293692 33.588869,28.9209549 33.0633333,28.4646856 C34.5620833,26.8742612 39.2659524,21.7379726 42.2894048,16.8167824 C43.2301786,15.9694252 45.8319048,14.0270216 47.5966667,14.339892 Z M42.5359524,7.30682677 C43.1036825,7.60620676 43.51689,8.13518884 43.671369,8.76037037 C44.0671429,10.311686 43.2301786,12.8537577 41.2448214,16.0997878 C38.2408333,21.020978 33.4591071,26.2159298 32.0641667,27.6890278 C31.4108601,27.1749522 30.7261033,26.7025466 30.0139286,26.274593 C31.5580952,21.0535687 36.0024405,8.87769676 40.3364881,7.11780093 C41.0480131,6.85261542 41.8688518,6.90369924 42.5359524,7.30682677 Z M10.2057738,16.2040779 C12.94375,12.9450116 12.333869,10.2269502 11.7434524,8.90376929 C12.4579217,8.77576251 13.193601,8.84561508 13.8715476,9.1058314 L14.3646429,7.89997685 C11.8667262,6.86359375 8.94059524,8.27802855 7.07202381,9.50995563 C8.56428571,6.18570795 12.0483929,0.247689043 17.4529762,1.62301505 C20.372619,2.37260031 22.1698214,3.74140818 22.7861905,5.69684799 C23.5647619,8.17373843 22.3904167,11.4979861 19.5421429,14.8222338 C17.7968452,16.8624093 17.0247619,18.8830305 17.2453571,20.8189159 C17.3695177,21.8356072 17.7564976,22.8019177 18.3677976,23.621713 C12.7555952,23.9085108 6.78005952,26.9524788 3.39327381,31.2805189 C4.99583333,26.2028935 7.78571429,19.0720563 10.2057738,16.2040779 Z M2.75095238,43.9191782 C1.10581075,40.255128 1.54161857,35.98633 3.89285714,32.7340625 C7.03958333,28.1713696 13.5406548,24.9123032 19.2307143,24.9123032 L19.8016667,24.9123032 C20.2428571,24.9709664 26.2443452,25.7531424 28.9304167,27.1349865 C30.448631,27.897608 36.3333333,31.9388503 37.4752381,37.4597087 C38.078631,40.3667959 37.261131,43.2347743 35.0357143,45.9789082 C31.0195833,50.9261709 23.1560119,53.5008333 15.467619,52.3927508 C9.265,51.4997666 4.6260119,48.4101717 2.75095238,43.9191782 Z M45.0208929,51.4932485 C44.982785,52.3419371 44.6006555,53.1379967 43.9633333,53.6963773 C43.7151644,53.9422685 43.3683254,54.0600188 43.0225595,54.0157658 C40.7647024,53.8397762 37.0340476,49.6290625 35.4055357,47.5497782 C35.626131,47.3151254 35.8402381,47.0739545 36.0543452,46.8262654 C36.2684524,46.5785764 36.450119,46.3243692 36.6317857,46.070162 C39.0293603,47.2602243 41.5100538,48.2732163 44.0541667,49.1010938 C44.6366577,49.765551 44.9774809,50.6089148 45.0208929,51.4932485 Z M49.5625595,48.0777469 C49.4878668,48.2739643 49.3236177,48.4219875 49.121369,48.475353 C46.9802976,49.2836015 40.401369,46.4482137 37.3389881,44.9751157 C37.8579772,44.1090642 38.2656482,43.1804398 38.5522619,42.2114275 C41.1713996,43.1574646 43.9310811,43.6511295 46.7142857,43.6714892 L47.7653571,43.6714892 C48.3622619,44.0299865 50.4903571,45.626929 49.5755357,48.0581925 L49.5625595,48.0777469 Z M52.6833333,39.9040085 C52.6511793,40.4523443 52.3396593,40.9451983 51.8593452,41.207635 C49.7831548,42.6416242 44.2552976,42.9023495 38.8442262,40.8947647 C39.0285261,39.7224128 39.0065659,38.5266608 38.7793452,37.3619367 C41.8501388,37.2241881 44.9072731,36.8669603 47.9275595,36.292963 C48.8164286,36.5015432 52.6833333,37.472745 52.6833333,39.9040085 Z M38.4484524,36.0843827 C38.1795688,35.2564519 37.829664,34.4573336 37.403869,33.6987461 C41.030673,32.8646895 44.5569485,31.6386568 47.9210714,30.0420737 C48.9007738,29.9703742 51.294881,30.0420737 52.4238095,31.039348 C52.8419343,31.4047245 53.079165,31.9361981 53.072619,32.4928916 C53.1115476,34.2918962 45.6113095,35.7389217 38.4484524,36.0843827 Z" id="path-3"></path>
        <mask id="mask-4" maskContentUnits="userSpaceOnUse" maskUnits="objectBoundingBox" x="0" y="0" width="53.935069" height="62.1659407" fill="white">
            <use xlink:href="#path-3"></use>
        </mask>
        <path d="M35.3211905,41.2662982 L35.1979167,40.4124228 C35.1525,40.125625 34.1014286,33.4184664 28.5995238,30.2310995 C17.5178571,24.2409356 7.78571429,33.7313368 7.68190476,33.8225907 L7.45482143,34.0507253 L7.49375,34.3701138 C7.95440476,38.0789313 9.44017857,40.7448476 11.8472619,42.3026813 C13.6864573,43.3950875 15.7976655,43.9377696 17.9330952,43.8670332 C20.3606285,43.8127263 22.7663379,43.3930738 25.07,42.6220698 C30.6043452,40.8361015 34.4193452,41.1815625 34.4582738,41.1815625 L35.3211905,41.2662982 Z M24.7131548,41.3836246 C21.7610714,42.335272 16.278631,43.5802353 12.5479762,41.2011169 C10.5301786,39.8974904 9.30392857,37.668289 8.83029762,34.5330671 C10.3095833,33.2294406 18.6597619,26.3332562 27.9701786,31.3978453 C31.8630357,33.6531192 33.309881,38.0593769 33.7510714,39.8714178 C30.6758095,39.8937992 27.6233776,40.4041599 24.7066667,41.3836246 L24.7131548,41.3836246 Z" id="path-5"></path>
        <mask id="mask-6" maskContentUnits="userSpaceOnUse" maskUnits="objectBoundingBox" x="0" y="0" width="27.866369" height="15.6238815" fill="white">
            <use xlink:href="#path-5"></use>
        </mask>
        <ellipse id="path-7" cx="16.0645238" cy="5.25361497" rx="0.999166667" ry="1.00379244"></ellipse>
        <mask id="mask-8" maskContentUnits="userSpaceOnUse" maskUnits="objectBoundingBox" x="0" y="0" width="1.99833333" height="2.00758488" fill="white">
            <use xlink:href="#path-7"></use>
        </mask>
    </defs>
    <g id="Page-1" stroke="none" stroke-width="1" fill="none" fill-rule="evenodd">
        <g id="icon">
            <g id="Group" transform="translate(-7.300000, -8.900000)">
                <g id="noun_1134423" transform="translate(69.149999, 36.930556) scale(-1, 1) translate(-69.149999, -36.930556) translate(59.899999, 21.000000)">
                    <path d="M14.3042,31.8042163 L7.7959,31.8042163 C6.09250492,31.8021263 4.71213878,30.3870684 4.7101,28.6408631 L4.7101,6.01947421 C4.7101,5.84141534 4.85090645,5.69707011 5.0246,5.69707011 L5.0246,5.69707011 C5.19829355,5.69707011 5.3391,5.84141534 5.3391,6.01947421 L5.3391,28.6408631 C5.34113758,30.030951 6.43989172,31.1573193 7.7959,31.1594081 L14.3079,31.1594081 C15.6639083,31.1573193 16.7626624,30.030951 16.7647,28.6408631 L16.7647,6.01947421 C16.7647,5.84141534 16.9055064,5.69707011 17.0792,5.69707011 L17.0792,5.69707011 C17.2528936,5.69707011 17.3937,5.84141534 17.3937,6.01947421 L17.3937,28.6408631 C17.3916583,30.3885482 16.0090398,31.8042175 14.3042,31.8042163 L14.3042,31.8042163 Z" id="Shape" fill="#231F20"></path>
                    <path d="M5.032,10.8289848 C2.43477051,10.8289848 0.3293,8.67059902 0.3293,6.00809524 C0.3293,3.34559146 2.43477051,1.18720569 5.032,1.18720569 C7.62922949,1.18720569 9.7347,3.34559146 9.7347,6.00809524 C9.7347,6.18615411 9.59389355,6.33049934 9.4202,6.33049934 C9.24650645,6.33049934 9.1057,6.18615411 9.1057,6.00809524 C9.1057,3.70380401 7.28349893,1.83580688 5.0357,1.83580688 C2.78790107,1.83580688 0.9657,3.70380401 0.9657,6.00809524 C0.9657,8.31238647 2.78790107,10.1803836 5.0357,10.1803836 C5.20939355,10.1803836 5.3502,10.3247288 5.3502,10.5027877 C5.3502,10.6808466 5.20939355,10.8251918 5.0357,10.8251918 L5.032,10.8289848 Z" id="Shape" fill="#231F20"></path>
                    <path d="M5.032,9.36489087 C3.22354359,9.36489087 1.7575,7.86200228 1.7575,6.00809524 C1.7575,4.1541882 3.22354359,2.6512996 5.032,2.6512996 C6.84045641,2.6512996 8.3065,4.1541882 8.3065,6.00809524 C8.3065,6.18615411 8.16569355,6.33049934 7.992,6.33049934 C7.81830645,6.33049934 7.6775,6.18615411 7.6775,6.00809524 C7.67545722,4.51080147 6.49012349,3.29850638 5.02953678,3.29990197 C3.56895007,3.30129756 2.3858229,4.51585572 2.38650287,6.01315079 C2.38718285,7.51044586 3.57141265,8.7238742 5.032,8.72387566 C5.20569355,8.72387566 5.3465,8.86822089 5.3465,9.04627976 C5.3465,9.22433863 5.20569355,9.36868386 5.032,9.36868386 L5.032,9.36489087 Z" id="Shape" fill="#231F20"></path>
                    <g id="Shape">
                        <use fill="#231F20" fill-rule="evenodd" xlink:href="#path-1"></use>
                        <use stroke="#FFFFFF" mask="url(#mask-2)" stroke-width="0.5" xlink:href="#path-1"></use>
                    </g>
                    <path d="M11.0482,9.13351852 C4.7064,9.13351852 4.7064,8.39767857 4.7064,8.12079034 C4.7064,7.96967998 4.80877981,7.83884407 4.95267537,7.80606363 C5.09657093,7.77328319 5.24336934,7.84735451 5.3058,7.98424272 C5.6758,8.20044312 7.8144,8.48491733 11.0482,8.48491733 C14.282,8.48491733 16.4095,8.20044312 16.7906,7.98424272 C16.8530307,7.84735451 16.9998291,7.77328319 17.1437246,7.80606363 C17.2876202,7.83884407 17.39,7.96967998 17.39,8.12079034 C17.39,8.39767857 17.39,9.13351852 11.0482,9.13351852 Z" id="Shape" fill="#231F20"></path>
                    <path d="M11.0482,10.9238095 C4.7064,10.9238095 4.7064,10.1879696 4.7064,9.91108135 C4.7064,9.75997098 4.80877981,9.62913508 4.95267537,9.59635464 C5.09657093,9.5635742 5.24336934,9.63764552 5.3058,9.77453373 C5.6758,9.99073413 7.8144,10.2752083 11.0482,10.2752083 C14.282,10.2752083 16.4095,9.99073413 16.7906,9.77453373 C16.8530307,9.63764552 16.9998291,9.5635742 17.1437246,9.59635464 C17.2876202,9.62913508 17.39,9.75997098 17.39,9.91108135 C17.39,10.1917626 17.39,10.9238095 11.0482,10.9238095 Z" id="Shape" fill="#231F20"></path>
                    <path d="M11.0482,6.89944775 C6.5231,6.89944775 5.2244,6.52014881 4.8544,6.20912368 L2.072,6.20912368 C1.89830645,6.20912368 1.7575,6.06477844 1.7575,5.88671958 C1.7575,5.70866071 1.89830645,5.56431548 2.072,5.56431548 L5.032,5.56431548 C5.15411015,5.56431548 5.26518276,5.63677446 5.3169,5.75017196 C5.6869,5.96637235 7.8255,6.25084656 11.0593,6.25084656 C14.2931,6.25084656 16.4206,5.96637235 16.8017,5.75017196 C16.8641307,5.61328374 17.0109291,5.53921242 17.1548246,5.57199287 C17.2987202,5.60477331 17.4011,5.73560921 17.4011,5.88671958 C17.39,6.1636078 17.39,6.89944775 11.0482,6.89944775 Z" id="Shape" fill="#231F20"></path>
                    <path d="M17.0792,6.06878307 C16.9562326,6.06810052 16.8449326,5.99401141 16.7943,5.8791336 C16.4243,5.65914021 14.2894,5.37466601 11.0519,5.37466601 L9.6533,5.37466601 C9.56874021,5.38113778 9.48546367,5.35058586 9.42411064,5.29058261 C9.3627576,5.23057936 9.32907096,5.14674131 9.3314,5.05984788 C9.32941414,4.9743343 9.36065892,4.89151675 9.41825623,4.82962635 C9.47585354,4.76773595 9.55508179,4.73184623 9.6385,4.7298578 C10.0936,4.7298578 10.5672,4.71089286 11.0556,4.71089286 C17.39,4.71089286 17.39,5.45052579 17.39,5.72741402 C17.3950677,5.81550151 17.3646945,5.90186867 17.3059624,5.96637739 C17.2472303,6.0308861 17.1652729,6.067898 17.0792,6.06878307 Z" id="Shape" fill="#231F20"></path>
                    <path d="M5.0209,6.06878307 C4.92830156,6.06899795 4.84031655,6.0273689 4.7804,5.95499339 L3.2116,4.05849868 C3.09103625,3.9202412 3.10263208,3.70796881 3.23750001,3.58437501 C3.37236794,3.46078121 3.57943624,3.47266846 3.7,3.61092593 L5.2688,5.50742063 C5.34817609,5.60330076 5.36592602,5.73774328 5.3142676,5.85180389 C5.26260918,5.96586451 5.15097134,6.03872436 5.0283,6.03843915 L5.0209,6.06878307 Z" id="Shape" fill="#231F20"></path>
                    <path d="M11.0482,29.7901389 C7.5517,29.7901389 4.7064,28.0074339 4.7064,25.815086 C4.7064,25.6370271 4.84720645,25.4926819 5.0209,25.4926819 C5.19459355,25.4926819 5.3354,25.6370271 5.3354,25.815086 C5.3354,27.6508929 7.8995,29.1453307 11.0482,29.1453307 C14.1969,29.1453307 16.761,27.6508929 16.761,25.815086 C16.761,25.6370271 16.9018064,25.4926819 17.0755,25.4926819 C17.2491936,25.4926819 17.39,25.6370271 17.39,25.815086 C17.39,28.0036409 14.5484,29.7901389 11.0482,29.7901389 Z" id="Shape" fill="#231F20"></path>
                    <path d="M15.4993,26.4864451 C14.8669682,26.4650171 14.2366515,26.4016683 13.6123,26.2967956 C12.6843641,26.1445397 11.7472546,26.0583591 10.8077,26.0388724 C9.88230669,26.0568249 8.95958266,26.1468516 8.0475,26.3081746 C6.7858,26.5016171 5.7868,26.6533366 5.1948,26.1336971 C4.83478612,25.7616301 4.6556764,25.2441805 4.7064,24.722705 C4.7064,24.5446462 4.84720645,24.4003009 5.0209,24.4003009 C5.19459355,24.4003009 5.3354,24.5446462 5.3354,24.722705 C5.29400331,25.0552889 5.39216681,25.3902646 5.6055,25.6444015 C5.9755,25.9743915 6.8524,25.8416369 7.955,25.6709524 C8.8977259,25.5055619 9.85140235,25.4142643 10.8077,25.3978571 C11.7770121,25.4173519 12.7438207,25.5060699 13.7011,25.6633664 C14.9554,25.8416369 16.0395,25.9971495 16.4872,25.5988856 C16.6983838,25.3628939 16.7995843,25.0447459 16.7647,24.726498 C16.7647,24.5484391 16.9055064,24.4040939 17.0792,24.4040939 C17.2528936,24.4040939 17.3937,24.5484391 17.3937,24.726498 C17.437172,25.2330781 17.256537,25.7329106 16.9016,26.0881812 C16.4971048,26.3916316 15.9984534,26.5332524 15.4993,26.4864451 Z" id="Shape" fill="#231F20"></path>
                    <path d="M9.5534,17.1025893 C8.84053245,17.0709209 8.15072924,16.8343314 7.5628,16.4198512 C6.5786,15.763664 5.957,14.8381746 5.9755,14.0568188 C5.97763659,13.9352493 6.04630905,13.8252519 6.1531,13.7723446 C6.8413,13.4347685 7.9217,13.6395899 8.9059,14.2957771 C9.8901,14.9519643 10.5117,15.8774537 10.4932,16.6588095 C10.4910634,16.780379 10.422391,16.8903764 10.3156,16.9432837 C10.0762528,17.0538362 9.81586221,17.1082598 9.5534,17.1025893 L9.5534,17.1025893 Z M6.6267,14.2881911 C6.84654727,14.9622873 7.30277668,15.5286585 7.9069,15.8774537 C8.46411647,16.301241 9.1552331,16.4972915 9.8457,16.4274372 C9.62585273,15.753341 9.16962332,15.1869699 8.5655,14.8381746 C8.00828353,14.4143873 7.3171669,14.2183368 6.6267,14.2881911 L6.6267,14.2881911 Z" id="Shape" fill="#231F20"></path>
                    <path d="M7.918,21.9993386 C7.88491785,22.0048608 7.85118215,22.0048608 7.8181,21.9993386 L6.8191,21.6617626 C6.58191618,21.5827876 6.38922808,21.4032141 6.29,21.1686739 C5.8608,20.2545635 6.5305,18.3353108 6.6082,18.1342824 C6.66848189,17.9666976 6.84987371,17.8809396 7.01334999,17.9427365 C7.17682627,18.0045334 7.26048186,18.190484 7.2002,18.3580688 C6.9412,19.0749438 6.623,20.4024901 6.8598,20.9069577 C6.88456988,20.9746286 6.93746708,21.0274648 7.0041,21.0510913 L8.0031,21.3886673 C8.12849446,21.4487667 8.20081501,21.5858472 8.18123912,21.7263223 C8.16166322,21.8667975 8.05479396,21.9776361 7.918,21.9993386 Z" id="Shape" fill="#231F20"></path>
                    <path d="M6.9227,23.4937765 C6.79751863,23.4939217 6.6841725,23.4179482 6.6341,23.300334 C6.0384,21.9120999 6.6563,21.157295 6.6859,21.1269511 C6.80172669,21.0069986 6.98819546,20.9989251 7.11347609,21.1084384 C7.23875672,21.2179517 7.26044165,21.4079815 7.1632,21.5441799 C7.141,21.5707308 6.7932,22.0562335 7.2113,23.0386177 C7.24493315,23.1199025 7.24457512,23.2117709 7.21030948,23.2927776 C7.17604384,23.3737844 7.11086938,23.4368401 7.03,23.4672255 C6.99606519,23.482568 6.95972553,23.4915601 6.9227,23.4937765 L6.9227,23.4937765 Z" id="Shape" fill="#231F20"></path>
                    <path d="M12.4246,17.1025893 C12.1621378,17.1082598 11.9017472,17.0538362 11.6624,16.9432837 C11.555609,16.8903764 11.4869366,16.780379 11.4848,16.6588095 C11.4663,15.8774537 12.0879,14.9519643 13.0721,14.2957771 C14.0563,13.6395899 15.1367,13.4347685 15.8249,13.7723446 C15.931691,13.8252519 16.0003634,13.9352493 16.0025,14.0568188 C16.021,14.8381746 15.3994,15.763664 14.4152,16.4198512 C13.8272708,16.8343314 13.1374675,17.0709209 12.4246,17.1025893 L12.4246,17.1025893 Z M12.136,16.4274372 C12.8210679,16.4945369 13.5061891,16.3000428 14.06,15.8812467 C14.6641233,15.5324514 15.1203527,14.9660803 15.3402,14.2919841 C14.6497331,14.2221298 13.9586165,14.4181803 13.4014,14.8419676 C12.8014608,15.192916 12.3494064,15.7590126 12.1323,16.4312302 L12.136,16.4274372 Z" id="Shape" fill="#231F20"></path>
                    <path d="M14.2265,23.9489352 C13.5442476,23.9302817 12.8795483,23.7232395 12.3025,23.3496429 C11.9022935,23.0932156 11.4554097,22.9228743 10.989,22.8489683 C10.5238717,22.9233699 10.0782923,23.0936938 9.6792,23.3496429 C8.913975,23.8599892 7.98793018,24.0525653 7.0892,23.8882474 C6.53795304,23.7827279 6.0571467,23.4403281 5.7683,22.947586 C4.847,21.517629 4.9099,18.9649471 5.1467,17.910496 C5.2688,17.3718915 5.5426,17.208793 5.7498,17.1518981 C6.3862,17.0229365 7.1114,17.8384292 8.0031,19.1090807 C8.67172901,19.9161966 9.64550436,20.3911586 10.6782,20.413869 L11.2961,20.413869 C12.3287956,20.3911586 13.302571,19.9161966 13.9712,19.1090807 C14.7445,18.0091138 15.5622,17.0153505 16.2245,17.1518981 C16.4317,17.193621 16.7018,17.3567196 16.8276,17.910496 C17.0681,18.9611541 17.1273,21.517629 16.1986,22.951379 C15.9113511,23.444682 15.4319421,23.7884262 14.8814,23.8958333 C14.6649455,23.9323851 14.4458684,23.9501487 14.2265,23.9489352 Z M11.1925,22.226918 C11.6833519,22.3257827 12.1531573,22.5132906 12.58,22.7806944 C13.2192444,23.2183756 13.9983847,23.3868136 14.7556,23.2510251 C15.1354045,23.1750528 15.4645964,22.9344013 15.6584,22.591045 C16.4317,21.3962533 16.4206,19.0408069 16.1986,18.0394577 C16.1542,17.8384292 16.095,17.7815344 16.0876,17.7815344 C16.0062,17.7587765 15.6325,17.8308433 14.467,19.4845866 C13.678394,20.4580393 12.5154336,21.0312866 11.2813,21.0548843 L10.6782,21.0548843 C9.44406642,21.0312866 8.28110597,20.4580393 7.4925,19.4845866 C6.327,17.8346362 5.9607,17.7625694 5.8719,17.7815344 C5.8719,17.7815344 5.8053,17.8384292 5.7609,18.0394577 C5.5352,19.0218419 5.5241,21.3810813 6.3011,22.591045 C6.4949036,22.9344013 6.82409554,23.1750528 7.2039,23.2510251 C7.9611153,23.3868136 8.74025559,23.2183756 9.3795,22.7806944 C9.81199611,22.5111959 10.2882409,22.323619 10.7855,22.226918 C10.8338263,22.2030653 10.8874039,22.1926035 10.9409,22.1965741 L11.0371,22.1965741 C11.0905658,22.1931171 11.1440176,22.2035543 11.1925,22.226918 Z" id="Shape" fill="#231F20"></path>
                    <path d="M10.989,14.7926587 C10.7634645,14.7890464 10.5548543,14.6692887 10.434,14.4740476 C8.7246,11.818955 5.1467,12.8468552 5.1097,12.8582341 C4.94778087,12.8946054 4.78612049,12.7959005 4.7401955,12.6326259 C4.6942705,12.4693512 4.77984861,12.297565 4.9358,12.2399769 C5.66879776,12.0479521 6.42664416,11.9749984 7.1817,12.0237765 C8.69806613,12.0542154 10.1060467,12.8359799 10.9594,14.1212996 C10.9816,14.1554365 10.9779,14.1857804 11.0186,14.1212996 C11.8694099,12.8291337 13.2795758,12.041264 14.8,12.0086045 C15.5550549,11.9598892 16.3128918,12.032842 17.0459,12.2248049 C17.2018514,12.282393 17.2874295,12.4541792 17.2415045,12.6174539 C17.1955795,12.7807286 17.0339191,12.8794335 16.872,12.8430622 C16.835,12.8430622 13.2571,11.818955 11.5477,14.4588757 C11.4296751,14.661044 11.2187661,14.7870469 10.989,14.7926587 Z" id="Shape" fill="#231F20"></path>
                    <path d="M14.06,21.9993386 C13.9040437,22.0017111 13.7699529,21.8865485 13.7449127,21.7287291 C13.7198726,21.5709096 13.8114493,21.4181195 13.9601,21.3697024 L14.9591,21.0321263 C15.0254586,21.0080459 15.0781945,20.9553708 15.1034,20.8879927 C15.3402,20.3835251 15.0183,19.0559788 14.763,18.3391038 C14.7027181,18.171519 14.7863737,17.9855684 14.94985,17.9237715 C15.1133263,17.8619746 15.2947181,17.9477327 15.355,18.1153175 C15.4327,18.3315179 16.095,20.2545635 15.6732,21.149709 C15.5802296,21.3799071 15.3978779,21.5599691 15.17,21.6465906 L14.171,21.9841667 C14.1351833,21.9959904 14.0975874,22.0011291 14.06,21.9993386 L14.06,21.9993386 Z" id="Shape" fill="#231F20"></path>
                    <path d="M15.0553,23.4937765 C15.0120207,23.4940018 14.9691726,23.4849584 14.9295,23.4672255 C14.8528995,23.4330934 14.7926896,23.3691269 14.7621489,23.2894332 C14.7316083,23.2097396 14.7332457,23.1208653 14.7667,23.0424107 C15.1922,22.0524405 14.8296,21.5669378 14.8148,21.5479729 C14.7075196,21.4108509 14.7255181,21.2112461 14.8555,21.0966071 C14.9854769,20.983123 15.1804157,20.9983649 15.2921,21.130744 C15.318,21.161088 15.9396,21.9158929 15.3439,23.304127 C15.292716,23.4202578 15.1796077,23.4945854 15.0553,23.4937765 Z" id="Shape" fill="#231F20"></path>
                    <path d="M10.1787,20.2773214 C10.0730794,20.2775458 9.97440186,20.2234052 9.916,20.1331878 C9.75680968,19.8734879 9.51087608,19.6820427 9.2241,19.5945833 C9.06151262,19.5828144 8.90243368,19.6469301 8.7912,19.7690608 C8.70404754,19.8512296 8.57926185,19.8762541 8.46832968,19.8338093 C8.3573975,19.7913644 8.27912209,19.6886447 8.2658,19.5680324 C8.22462978,19.1288655 8.36872241,18.692626 8.6617,18.3694478 C9.09474725,17.9948016 9.67594616,17.8539491 10.2268,17.9901488 C10.3431782,18.0000785 10.4446072,18.0752961 10.4902257,18.1854998 C10.5358443,18.2957034 10.5181403,18.4227457 10.444246,18.5154471 C10.3703516,18.6081484 10.2524352,18.6512434 10.138,18.627371 C9.78194321,18.5269045 9.40063543,18.5981025 9.102,18.8208135 C9.0645755,18.8593081 9.03223346,18.9026644 9.0058,18.9497751 C9.10638533,18.9345119 9.20861467,18.9345119 9.3092,18.9497751 C9.77786402,19.0622072 10.1853315,19.3574601 10.4451,19.7728538 C10.4929017,19.8440558 10.5108122,19.9319525 10.494812,20.016817 C10.4788117,20.1016815 10.4302408,20.1764059 10.36,20.2242196 C10.3063887,20.260739 10.2430393,20.2792937 10.1787,20.2773214 Z" id="Shape" fill="#231F20"></path>
                    <path d="M11.84,20.2773214 C11.7252422,20.2766621 11.6199451,20.2119772 11.5652622,20.1085477 C11.5105794,20.0051183 11.515193,19.8793663 11.5773,19.7804398 C11.8428343,19.3638806 12.2574379,19.0709958 12.7317,18.9649471 C12.8322893,18.9497387 12.9345107,18.9497387 13.0351,18.9649471 C13.0074864,18.9176367 12.9738957,18.8742742 12.9352,18.8359854 C12.6368813,18.6157493 12.2572592,18.5460068 11.9029,18.646336 C11.7884648,18.6702083 11.6705484,18.6271133 11.596654,18.534412 C11.5227597,18.4417107 11.5050557,18.3146684 11.5506743,18.2044647 C11.5962928,18.094261 11.6977218,18.0190435 11.8141,18.0091138 C12.3649538,17.8729141 12.9461528,18.0137665 13.3792,18.3884127 C13.6721776,18.711591 13.8162702,19.1478305 13.7751,19.5869974 C13.7617779,19.7076097 13.6835025,19.8103294 13.5725703,19.8527742 C13.4616381,19.8952191 13.3368525,19.8701945 13.2497,19.7880258 C13.1384663,19.665895 12.9793874,19.6017793 12.8168,19.6135483 C12.5300239,19.7010077 12.2840903,19.8924529 12.1249,20.1521528 C12.057976,20.242284 11.9498218,20.2898008 11.84,20.2773214 Z" id="Shape" fill="#231F20"></path>
                    <path d="M11.7327,18.642543 C11.5590064,18.642543 11.4182,18.4981978 11.4182,18.3201389 L11.4182,13.9392361 C11.4182,13.7611772 11.5590064,13.616832 11.7327,13.616832 C11.9063936,13.616832 12.0472,13.7611772 12.0472,13.9392361 L12.0472,18.3201389 C12.0472,18.4981978 11.9063936,18.642543 11.7327,18.642543 Z" id="Shape" fill="#231F20"></path>
                    <path d="M10.3045,18.642543 C10.1308064,18.642543 9.99,18.4981978 9.99,18.3201389 L9.99,13.9392361 C9.99,13.7611772 10.1308064,13.616832 10.3045,13.616832 C10.4781936,13.616832 10.619,13.7611772 10.619,13.9392361 L10.619,18.3201389 C10.619,18.4056458 10.5858653,18.4876505 10.5268851,18.548113 C10.4679049,18.6085755 10.3879106,18.642543 10.3045,18.642543 Z" id="Shape" fill="#231F20"></path>
                    <path d="M11.0482,31.8042163 C10.9641502,31.80523 10.8832021,31.7717106 10.8234192,31.7111379 C10.7636363,31.6505651 10.7299942,31.5679803 10.73,31.4818122 L10.73,29.4677348 C10.73,29.2896759 10.8708064,29.1453307 11.0445,29.1453307 C11.2181936,29.1453307 11.359,29.2896759 11.359,29.4677348 L11.359,31.4818122 C11.3590119,31.6584002 11.2204469,31.8021388 11.0482,31.8042163 Z" id="Shape" fill="#231F20"></path>
                    <path d="M5.0209,6.06878307 C4.84720645,6.06878307 4.7064,5.92443784 4.7064,5.74637897 L4.7064,3.22404101 C4.7064,3.04598214 4.84720645,2.9016369 5.0209,2.9016369 C5.19459355,2.9016369 5.3354,3.04598214 5.3354,3.22404101 L5.3354,5.72741402 C5.34050114,5.81615674 5.30963236,5.90312066 5.25009025,5.96774969 C5.19054815,6.03237873 5.10761712,6.06893701 5.0209,6.06878307 Z" id="Shape" fill="#231F20"></path>
                    <path d="M3.2486,8.44319444 C3.1225645,8.44290863 3.00886823,8.36551642 2.95970707,8.24654716 C2.9105459,8.1275779 2.93541601,7.99001221 3.0229,7.89700397 L4.7841,6.00050926 C4.86030499,5.91004038 4.97908107,5.87021651 5.09270715,5.89703781 C5.20633323,5.92385912 5.29615891,6.0129232 5.32609462,6.12844648 C5.35603033,6.24396976 5.32116246,6.36699041 5.2355,6.44808201 L3.4743,8.34457672 C3.41519281,8.40741714 3.33375452,8.44300092 3.2486,8.44319444 L3.2486,8.44319444 Z" id="Shape" fill="#231F20"></path>
                    <path d="M5.3095,6.06878307 C5.18279147,6.07002939 5.06772957,5.99320132 5.01761932,5.8738912 C4.96750907,5.75458108 4.9921395,5.61609611 5.0801,5.52259259 L6.6896,3.78161045 C6.81111422,3.66389999 7.00122737,3.66422181 7.1223617,3.78234303 C7.24349604,3.90046425 7.2533093,4.09509583 7.1447,4.22539021 L5.55,5.9512004 C5.49079008,6.02499114 5.40270234,6.06805805 5.3095,6.06878307 Z" id="Shape" fill="#231F20"></path>
                </g>
                <g id="noun_1042947" transform="translate(35.250000, 37.287037) scale(-1, 1) rotate(-15.000000) translate(-35.250000, -37.287037) translate(8.000000, 6.000000)" stroke-width="0.7" stroke="#FFFFFF" fill="#000000">
                    <g id="icons_animals_2">
                        <use id="Shape" mask="url(#mask-4)" xlink:href="#path-3"></use>
                        <use id="Shape" mask="url(#mask-6)" xlink:href="#path-5"></use>
                        <use id="Oval" mask="url(#mask-8)" xlink:href="#path-7"></use>
                    </g>
                </g>
            </g>
        </g>
    </g>
</svg>